<?xml version="1.0" encoding="UTF-8"?>
<!-- Generator: Adobe Illustrator 15.0.2, SVG Export Plug-In . SVG Version: 6.00 Build 0)  -->
<!DOCTYPE svg PUBLIC "-//W3C//DTD SVG 1.1//EN" "http://www.w3.org/Graphics/SVG/1.1/DTD/svg11.dtd">
<svg xmlns="http://www.w3.org/2000/svg" xmlns:xlink="http://www.w3.org/1999/xlink" version="1.1" id="Layer_1" x="0px" y="0px" width="511.994px" height="511.952px" viewBox="0 0 511.994 511.952" enable-background="new 0 0 511.994 511.952" xml:space="preserve">
<g>
	<path d="M255.993,0c-65.511,0-131.03,24.992-181.016,74.978c-99.97,99.97-99.97,262.061,0,361.997   c50.019,49.984,115.505,74.978,181.016,74.978c65.52,0,131.039-24.993,181.023-74.978c99.97-99.97,99.97-262.061,0-361.997   C387.032,24.992,321.512,0,255.993,0z M412.777,412.735c-41.865,41.866-97.542,64.934-156.784,64.934   c-59.208,0-114.885-23.067-156.776-64.934c-41.857-41.866-64.934-97.543-64.934-156.768c0-59.251,23.076-114.885,64.934-156.785   C141.075,57.325,196.75,34.25,255.993,34.25c59.209,0,114.885,23.075,156.784,64.933c41.883,41.858,64.917,97.568,64.917,156.785   C477.694,315.159,454.626,370.869,412.777,412.735z M357.704,237.688h-85.708V117.454c0-9.458-7.666-17.142-17.142-17.142   c-9.449,0-17.133,7.684-17.133,17.142v137.274v0.034v0.066c0,9.458,7.684,17.142,17.133,17.142h102.85   c9.475,0,17.142-7.684,17.142-17.142S367.178,237.688,357.704,237.688z" fill="#000000"/>
</g>
</svg>
